<?xml version="1.0" encoding="UTF-8" standalone="no"?>
<svg
   xmlns:dc="http://purl.org/dc/elements/1.1/"
   xmlns:cc="http://creativecommons.org/ns#"
   xmlns:rdf="http://www.w3.org/1999/02/22-rdf-syntax-ns#"
   xmlns:svg="http://www.w3.org/2000/svg"
   xmlns="http://www.w3.org/2000/svg"
   xmlns:sodipodi="http://sodipodi.sourceforge.net/DTD/sodipodi-0.dtd"
   xmlns:inkscape="http://www.inkscape.org/namespaces/inkscape"
   version="1.1"
   id="svg2"
   xml:space="preserve"
   width="257.01334"
   height="257.01334"
   viewBox="0 0 257.01334 257.01334"
   sodipodi:docname="MasterCard.eps"><metadata
     id="metadata8"><rdf:RDF><cc:Work
         rdf:about=""><dc:format>image/svg+xml</dc:format><dc:type
           rdf:resource="http://purl.org/dc/dcmitype/StillImage" /></cc:Work></rdf:RDF></metadata><defs
     id="defs6" /><sodipodi:namedview
     pagecolor="#ffffff"
     bordercolor="#666666"
     borderopacity="1"
     objecttolerance="10"
     gridtolerance="10"
     guidetolerance="10"
     inkscape:pageopacity="0"
     inkscape:pageshadow="2"
     inkscape:window-width="640"
     inkscape:window-height="480"
     id="namedview4" /><g
     id="g10"
     inkscape:groupmode="layer"
     inkscape:label="ink_ext_XXXXXX"
     transform="matrix(1.3333333,0,0,-1.3333333,0,257.01333)"><g
       id="g12"
       transform="scale(0.1)"><path
         d="M 0,1927.56 H 1927.56 V 0 H 0 v 1927.56"
         style="fill:#ffffff;fill-opacity:1;fill-rule:evenodd;stroke:none"
         id="path14" /><path
         d="m 1338.29,403.898 28.9,0.758 28.52,2.074 27.95,3.586 27.76,4.911 27.01,6.23 26.63,7.563 26.06,8.871 25.5,10.007 24.93,11.336 24.17,12.274 23.42,13.597 22.85,14.543 21.91,15.676 21.15,16.621 20.4,17.563 19.46,18.695 18.69,19.457 17.56,20.399 16.62,21.148 15.68,21.91 14.54,22.852 13.6,23.418 12.28,24.176 11.33,24.929 10.01,25.496 8.87,26.063 7.56,26.629 6.23,27.008 4.91,27.765 3.59,27.949 2.08,28.52 0.75,28.891 -0.75,28.71 -2.08,28.327 -3.59,27.95 -4.91,27.39 -6.23,27.01 -7.56,26.44 -8.87,26.06 -10.01,25.31 -11.33,24.74 -12.28,24.17 -13.6,23.23 -14.54,22.85 -15.68,21.91 -16.62,20.97 -17.56,20.39 -18.69,19.46 -19.46,18.5 -20.4,17.57 -21.15,16.62 -21.91,15.67 -22.85,14.55 -23.42,13.41 -24.17,12.27 -24.93,11.33 -25.5,10.01 -26.06,8.88 -26.63,7.55 -27.01,6.23 -27.76,4.92 -27.95,3.59 -28.52,2.07 -28.9,0.76 -28.71,-0.76 -28.51,-2.07 -27.96,-3.59 -27.57,-4.92 -27,-6.23 -26.63,-7.55 -25.88,-8.88 -25.5,-10.01 -24.74,-11.33 -23.98,-12.27 -23.42,-13.41 -22.66,-14.55 -21.91,-15.67 -21.156,-16.62 -20.207,-17.57 -19.453,-18.5 -18.508,-19.46 -17.566,-20.39 -16.617,-20.97 -15.489,-21.91 -14.543,-22.85 -13.406,-23.23 -12.465,-24.17 -11.144,-24.74 -10.012,-25.31 -8.684,-26.06 -7.558,-26.44 -6.227,-27.01 -4.914,-27.39 -3.59,-27.95 -2.074,-28.327 -0.758,-28.71 0.758,-28.891 2.074,-28.52 3.59,-27.949 4.914,-27.765 6.227,-27.008 7.558,-26.629 8.684,-26.063 10.012,-25.496 11.144,-24.929 12.465,-24.176 13.406,-23.418 14.543,-22.852 15.489,-21.91 16.617,-21.148 17.566,-20.399 18.508,-19.457 19.453,-18.695 20.207,-17.563 21.156,-16.621 21.91,-15.676 22.66,-14.543 23.42,-13.597 23.98,-12.274 24.74,-11.336 25.5,-10.007 25.88,-8.871 26.63,-7.563 27,-6.23 27.57,-4.911 27.96,-3.586 28.51,-2.074 28.71,-0.758 v 0"
         style="fill:#f9ab1e;fill-opacity:1;fill-rule:evenodd;stroke:none"
         id="path16" /><path
         d="m 589.262,403.898 28.711,0.758 28.515,2.074 27.953,3.586 27.575,4.911 27.007,6.23 26.629,7.563 25.875,8.871 25.496,10.007 24.743,11.336 23.984,12.274 23.418,13.597 22.664,14.543 21.906,15.676 21.153,16.621 20.211,17.563 19.449,18.695 18.509,19.457 17.57,20.399 16.62,21.148 15.48,21.91 14.54,22.852 13.41,23.418 12.47,24.176 11.14,24.929 10.01,25.496 8.69,26.063 7.55,26.629 6.23,27.008 4.91,27.765 3.59,27.949 2.08,28.52 0.76,28.891 -0.76,28.71 -2.08,28.327 -3.59,27.95 -4.91,27.39 -6.23,27.01 -7.55,26.44 -8.69,26.06 -10.01,25.31 -11.14,24.74 -12.47,24.17 -13.41,23.23 -14.54,22.85 -15.48,21.91 -16.62,20.97 -17.57,20.39 -18.509,19.46 -19.449,18.5 -20.211,17.57 -21.153,16.62 -21.906,15.67 -22.664,14.55 -23.418,13.41 -23.984,12.27 -24.743,11.33 -25.496,10.01 -25.875,8.88 -26.629,7.55 -27.007,6.23 -27.575,4.92 -27.953,3.59 -28.515,2.07 -28.711,0.76 -28.891,-0.76 -28.519,-2.07 -27.954,-3.59 -27.761,-4.92 -27.008,-6.23 -26.629,-7.55 -26.062,-8.88 -25.5,-10.01 -24.926,-11.33 -24.176,-12.27 -23.418,-13.41 -22.852,-14.55 -21.91,-15.67 -21.152,-16.62 -20.399,-17.57 -19.453,-18.5 -18.695,-19.46 -17.562,-20.39 -16.622,-20.97 -15.675,-21.91 -14.543,-22.85 -13.598,-23.23 -12.2773,-24.17 -11.332,-24.74 -10.0079,-25.31 -8.875,-26.06 -7.5585,-26.44 -6.2305,-27.01 -4.9102,-27.39 -3.5898,-27.95 -2.0781,-28.327 -0.75,-28.71 0.75,-28.891 2.0781,-28.52 3.5898,-27.949 4.9102,-27.765 6.2305,-27.008 7.5585,-26.629 8.875,-26.063 10.0079,-25.496 11.332,-24.929 12.2773,-24.176 13.598,-23.418 14.543,-22.852 15.675,-21.91 16.622,-21.148 17.562,-20.399 18.695,-19.457 19.453,-18.695 20.399,-17.563 21.152,-16.621 21.91,-15.676 22.852,-14.543 23.418,-13.597 24.176,-12.274 24.926,-11.336 25.5,-10.007 26.062,-8.871 26.629,-7.563 27.008,-6.23 27.761,-4.911 27.954,-3.586 28.519,-2.074 28.891,-0.758 v 0"
         style="fill:#ed192d;fill-opacity:1;fill-rule:evenodd;stroke:none"
         id="path18" /><path
         d="M 898.242,1308.92 H 1195.7 v 30.41 H 923.926 l -25.684,-30.41 v 0"
         style="fill:#f9ab1e;fill-opacity:1;fill-rule:evenodd;stroke:none"
         id="path20" /><path
         d="M 853.672,1241.31 H 1195.7 v 30.4 H 871.613 l -17.941,-30.4 v 0"
         style="fill:#f9ab1e;fill-opacity:1;fill-rule:evenodd;stroke:none"
         id="path22" /><path
         d="m 820.43,1173.89 h 375.27 v 30.41 H 833.656 l -13.226,-30.41 v 0"
         style="fill:#f9ab1e;fill-opacity:1;fill-rule:evenodd;stroke:none"
         id="path24" /><path
         d="M 797.578,1106.28 H 1195.7 v 30.4 H 807.023 l -9.445,-30.4 v 0"
         style="fill:#f9ab1e;fill-opacity:1;fill-rule:evenodd;stroke:none"
         id="path26" /><path
         d="m 810.801,779.543 h 385.839 v 30.406 H 801.355 l 9.446,-30.406 v 0"
         style="fill:#f9ab1e;fill-opacity:1;fill-rule:evenodd;stroke:none"
         id="path28" /><path
         d="m 839.32,711.93 h 357.32 v 30.406 H 825.152 L 839.32,711.93 v 0"
         style="fill:#f9ab1e;fill-opacity:1;fill-rule:evenodd;stroke:none"
         id="path30" /><path
         d="m 879.359,644.504 h 317.281 v 30.41 H 860.281 l 19.078,-30.41 v 0"
         style="fill:#f9ab1e;fill-opacity:1;fill-rule:evenodd;stroke:none"
         id="path32" /><path
         d="m 934.508,576.895 h 262.132 v 30.593 H 907.875 l 26.633,-30.593 v 0"
         style="fill:#f9ab1e;fill-opacity:1;fill-rule:evenodd;stroke:none"
         id="path34" /><path
         d="M 784.172,1038.85 H 1195.7 v 30.41 H 790.023 l -5.851,-30.41 v 0"
         style="fill:#f9ab1e;fill-opacity:1;fill-rule:evenodd;stroke:none"
         id="path36" /><path
         d="m 1034.98,846.965 h 156.94 v 30.41 h -151.28 l -5.66,-30.41 v 0"
         style="fill:#f9ab1e;fill-opacity:1;fill-rule:evenodd;stroke:none"
         id="path38" /><path
         d="m 1047.45,914.391 h 144.47 v 30.593 h -138.81 l -5.66,-30.593 v 0"
         style="fill:#f9ab1e;fill-opacity:1;fill-rule:evenodd;stroke:none"
         id="path40" /><path
         d="m 773.781,944.984 h 40.797 v -30.593 h -38.906 l -1.891,30.593 v 0"
         style="fill:#f9ab1e;fill-opacity:1;fill-rule:evenodd;stroke:none"
         id="path42" /><path
         d="m 697.672,981.813 -2.645,0.187 -2.644,0.379 -2.457,0.379 -2.453,0.375 -2.266,0.379 -2.453,0.379 -2.457,0.379 -2.645,0.375 -2.644,0.378 -3.02,0.188 -3.398,0.191 -3.59,0.188 h -3.969 l -4.343,-0.188 -4.911,-0.379 -5.476,-0.378 -3.778,-0.567 -3.589,-0.566 -3.207,-1.133 -2.836,-1.133 -2.645,-1.32 -2.453,-1.512 -1.891,-1.891 -1.699,-1.699 -1.133,-2.074 -0.945,-2.078 -0.375,-2.27 v -2.265 l 0.566,-2.453 0.754,-2.457 1.512,-2.454 1.891,-2.457 3.773,-3.586 4.535,-2.835 5.289,-2.454 5.664,-2.078 6.043,-1.886 6.231,-2.079 6.234,-2.269 6.043,-2.453 5.668,-3.211 5.285,-3.965 4.723,-4.723 3.965,-5.855 3.023,-7.176 1.891,-8.5 0.754,-10.195 -0.754,-11.903 -1.324,-8.875 -2.266,-7.742 -3.02,-7.179 -3.781,-6.231 -4.34,-5.476 -4.914,-4.723 -5.285,-4.152 -5.859,-3.59 -6.043,-2.828 -6.231,-2.461 -6.422,-1.891 -6.609,-1.508 -6.422,-1.137 -6.23,-0.562 -6.235,-0.379 -5.855,-0.187 h -8.117 l -7.559,0.187 h -6.605 l -6.235,0.191 -5.668,0.188 -5.097,0.379 -4.535,0.375 -4.34,0.566 -3.969,0.379 -3.586,0.754 -3.59,0.57 -3.211,0.942 -3.211,0.754 -3.023,1.133 -3.02,1.136 -3.211,1.133 8.5,41.738 1.7,-0.379 2.078,-0.562 2.64,-0.762 3.211,-0.754 3.403,-0.754 3.777,-0.753 4.156,-0.942 4.531,-0.762 4.719,-0.754 4.91,-0.757 5.102,-0.567 5.289,-0.566 5.477,-0.188 5.476,-0.187 h 5.477 l 5.476,0.187 5.477,1.133 4.344,1.512 3.398,2.074 2.645,2.649 1.89,2.644 1.512,3.02 0.945,3.023 0.754,2.832 0.375,5.477 -1.695,4.722 -3.215,3.778 -4.723,3.207 -5.66,2.836 -6.613,2.832 -7.367,2.644 -7.364,3.024 -7.554,3.398 -7.176,3.965 -6.613,4.91 -6.043,5.856 -4.723,7.175 -3.398,8.5 -1.7,10.2 0.192,12.085 0.941,7.364 1.324,6.988 1.887,6.426 2.266,6.043 3.023,5.661 3.399,4.91 3.968,4.72 4.723,4.16 5.477,3.59 6.043,3.02 6.796,2.83 7.555,2.08 8.5,1.7 9.254,1.32 10.199,0.76 11.141,0.19 h 6.988 l 6.422,-0.19 5.855,-0.19 5.286,-0.19 4.722,-0.38 4.348,-0.38 3.773,-0.37 3.399,-0.38 3.215,-0.38 2.644,-0.56 2.453,-0.38 2.266,-0.38 1.891,-0.38 1.699,-0.19 1.699,-0.38 1.512,-0.18 -9.633,-42.687 v 0"
         style="fill:#ffffff;fill-opacity:1;fill-rule:evenodd;stroke:none"
         id="path44" /><path
         d="m 697.672,981.813 v 0 l -2.645,0.187 -2.644,0.379 -2.457,0.379 -2.453,0.375 -2.266,0.379 -2.453,0.379 -2.457,0.379 -2.645,0.375 -2.644,0.378 -3.02,0.188 -3.398,0.191 -3.59,0.188 h -3.969 l -4.343,-0.188 -4.911,-0.379 -5.476,-0.378 v 0 l -3.778,-0.567 -3.589,-0.566 -3.207,-1.133 -2.836,-1.133 -2.645,-1.32 -2.453,-1.512 -1.891,-1.891 -1.699,-1.699 -1.133,-2.074 -0.945,-2.078 -0.375,-2.27 v -2.265 l 0.566,-2.453 0.754,-2.457 1.512,-2.454 1.891,-2.457 v 0 l 3.773,-3.586 4.535,-2.835 5.289,-2.454 5.664,-2.078 6.043,-1.886 6.231,-2.079 6.234,-2.269 6.043,-2.453 5.668,-3.211 5.285,-3.965 4.723,-4.723 3.965,-5.855 3.023,-7.176 1.891,-8.5 0.754,-10.195 -0.754,-11.903 v 0 l -1.324,-8.875 -2.266,-7.742 -3.02,-7.179 -3.781,-6.231 -4.34,-5.476 -4.914,-4.723 -5.285,-4.152 -5.859,-3.59 -6.043,-2.828 -6.231,-2.461 -6.422,-1.891 -6.609,-1.508 -6.422,-1.137 -6.23,-0.562 -6.235,-0.379 -5.855,-0.187 v 0 h -8.117 l -7.559,0.187 h -6.605 l -6.235,0.191 -5.668,0.188 -5.097,0.379 -4.535,0.375 -4.34,0.566 -3.969,0.379 -3.586,0.754 -3.59,0.57 -3.211,0.942 -3.211,0.754 -3.023,1.133 -3.02,1.136 -3.211,1.133 8.5,41.738 v 0 l 1.7,-0.379 2.078,-0.562 2.64,-0.762 3.211,-0.754 3.403,-0.754 3.777,-0.753 4.156,-0.942 4.531,-0.762 4.719,-0.754 4.91,-0.757 5.102,-0.567 5.289,-0.566 5.477,-0.188 5.476,-0.187 h 5.477 l 5.476,0.187 v 0 l 5.477,1.133 4.344,1.512 3.398,2.074 2.645,2.649 1.89,2.644 1.512,3.02 0.945,3.023 0.754,2.832 v 0 l 0.375,5.477 -1.695,4.722 -3.215,3.778 -4.723,3.207 -5.66,2.836 -6.613,2.832 -7.367,2.644 -7.364,3.024 -7.554,3.398 -7.176,3.965 -6.613,4.91 -6.043,5.856 -4.723,7.175 -3.398,8.5 -1.7,10.2 0.192,12.085 v 0 l 0.941,7.364 1.324,6.988 1.887,6.426 2.266,6.043 3.023,5.661 3.399,4.91 3.968,4.72 4.723,4.16 5.477,3.59 6.043,3.02 6.796,2.83 7.555,2.08 8.5,1.7 9.254,1.32 10.199,0.76 11.141,0.19 v 0 h 6.988 l 6.422,-0.19 5.855,-0.19 5.286,-0.19 4.722,-0.38 4.348,-0.38 3.773,-0.37 3.399,-0.38 3.215,-0.38 2.644,-0.56 2.453,-0.38 2.266,-0.38 1.891,-0.38 1.699,-0.19 1.699,-0.38 1.512,-0.18 -9.633,-42.687"
         style="fill:none;stroke:#ffffff;stroke-width:2.16;stroke-linecap:butt;stroke-linejoin:miter;stroke-miterlimit:2.6131;stroke-dasharray:none;stroke-opacity:1"
         id="path46" /><path
         d="m 742.43,1071.14 h 52.316 l -7.742,-45.7 h 31.539 l -6.801,-42.682 -33.238,0.945 -18.129,-105.387 -0.191,-3.777 0.945,-3.207 1.894,-2.461 2.45,-2.074 3.398,-1.324 3.781,-1.133 4.153,-0.754 4.531,-0.375 4.156,0.184 3.778,0.382 3.398,0.563 3.023,0.758 2.454,0.754 1.703,0.566 1.132,0.379 0.375,0.187 -6.609,-35.125 -1.32,-0.945 -1.324,-0.758 -1.317,-0.754 -1.328,-0.757 -1.32,-0.567 -1.508,-0.566 -1.703,-0.567 -1.699,-0.566 -1.891,-0.563 -1.887,-0.382 -2.265,-0.375 -2.266,-0.379 -2.457,-0.375 -2.832,-0.379 -3.024,-0.379 -3.21,-0.375 h -14.352 l -7.555,0.566 -6.613,0.754 -6.043,1.133 -5.098,1.32 -4.343,1.7 -3.586,1.89 -3.215,2.266 -2.453,2.457 -1.887,2.644 -1.324,3.207 -0.942,3.211 -0.57,3.59 -0.187,3.965 v 4.156 l 0.566,4.344 0.566,4.723 36.071,206.042 v 0"
         style="fill:#ffffff;fill-opacity:1;fill-rule:evenodd;stroke:none"
         id="path48" /><path
         d="m 742.43,1071.14 h 52.316 l -7.742,-45.7 h 31.539 l -6.801,-42.682 -33.238,0.945 -18.129,-105.387 v 0 l -0.191,-3.777 0.945,-3.207 1.894,-2.461 2.45,-2.074 3.398,-1.324 3.781,-1.133 4.153,-0.754 4.531,-0.375 v 0 l 4.156,0.184 3.778,0.382 3.398,0.563 3.023,0.758 2.454,0.754 1.703,0.566 1.132,0.379 0.375,0.187 -6.609,-35.125 v 0 l -1.32,-0.945 -1.324,-0.758 -1.317,-0.754 -1.328,-0.757 -1.32,-0.567 -1.508,-0.566 -1.703,-0.567 -1.699,-0.566 -1.891,-0.563 -1.887,-0.382 -2.265,-0.375 -2.266,-0.379 -2.457,-0.375 -2.832,-0.379 -3.024,-0.379 -3.21,-0.375 h -14.352 v 0 l -7.555,0.566 -6.613,0.754 -6.043,1.133 -5.098,1.32 -4.343,1.7 -3.586,1.89 -3.215,2.266 -2.453,2.457 -1.887,2.644 -1.324,3.207 -0.942,3.211 -0.57,3.59 -0.187,3.965 v 4.156 l 0.566,4.344 0.566,4.723 36.071,206.042"
         style="fill:none;stroke:#ffffff;stroke-width:2.16;stroke-linecap:butt;stroke-linejoin:miter;stroke-miterlimit:2.6131;stroke-dasharray:none;stroke-opacity:1"
         id="path50" /><path
         d="m 860.281,911.559 -0.566,-3.215 -0.188,-3.399 0.375,-3.586 0.758,-3.589 1.32,-3.59 1.512,-3.399 2.078,-3.59 2.266,-3.207 2.644,-3.211 2.836,-2.832 3.02,-2.836 3.398,-2.265 3.399,-2.078 3.781,-1.699 3.774,-1.317 3.781,-0.762 4.906,-0.754 4.723,-0.566 4.91,-0.566 4.91,-0.379 4.914,-0.188 h 5.094 l 4.914,0.188 5.098,0.379 5.101,0.754 5.098,0.945 5.289,1.133 5.097,1.699 5.29,2.082 5.476,2.262 5.289,3.019 5.477,3.215 -7.555,-46.461 -3.023,-1.512 -3.02,-1.511 -3.023,-1.133 -2.832,-1.129 -2.832,-0.949 -3.024,-0.942 -3.019,-0.754 -3.211,-0.57 -3.403,-0.566 -3.773,-0.375 -3.969,-0.379 -4.344,-0.379 -4.906,-0.192 h -5.101 l -5.856,-0.183 h -6.234 l -9.254,0.183 -9.442,0.95 -9.441,1.32 -9.445,2.266 -9.254,2.832 -8.879,3.593 -8.496,4.715 -7.934,5.481 -7.367,6.422 -6.418,7.742 -5.477,8.687 -4.535,10.012 -3.211,11.141 -2.078,12.656 -0.566,13.973 0.949,15.488 0.75,6.043 1.137,6.988 1.511,7.367 2.075,7.93 2.832,8.121 3.398,8.121 4.352,8.309 5.281,7.933 6.043,7.555 7.367,7.18 8.309,6.42 9.445,5.67 10.953,4.71 12.278,3.41 13.597,2.26 15.301,0.76 7.363,-0.19 7.742,-0.76 7.743,-1.32 7.746,-1.89 7.554,-2.83 7.368,-3.4 6.796,-4.54 6.235,-5.28 5.66,-6.42 4.723,-7.557 3.781,-8.688 2.641,-10.012 1.511,-11.328 0.188,-12.843 -1.321,-14.352 -2.832,-15.867 -0.945,-11.52 h -137.68 l 8.688,37.203 h 82.723 l 0.375,4.723 -0.188,4.535 -0.379,4.153 -0.754,3.777 -1.324,3.59 -1.32,3.211 -1.887,2.832 -1.891,2.644 -2.265,2.266 -2.453,1.891 -2.836,1.695 -2.832,1.512 -3.024,1.132 -3.019,0.758 -3.211,0.567 -3.399,0.378 -3.59,-0.191 -3.398,-0.566 -3.211,-0.754 -3.211,-1.133 -3.211,-1.512 -2.836,-1.699 -2.832,-2.078 -2.453,-2.266 -2.453,-2.644 -2.27,-2.832 -2.078,-3.024 -1.699,-3.211 -1.699,-3.398 -1.32,-3.777 -1.133,-3.778 -0.758,-3.965 -7.555,-39.093 v 0"
         style="fill:#ffffff;fill-opacity:1;fill-rule:evenodd;stroke:none"
         id="path52" /><path
         d="m 860.281,911.559 v 0 l -0.566,-3.215 -0.188,-3.399 0.375,-3.586 0.758,-3.589 1.32,-3.59 1.512,-3.399 2.078,-3.59 2.266,-3.207 2.644,-3.211 2.836,-2.832 3.02,-2.836 3.398,-2.265 3.399,-2.078 3.781,-1.699 3.774,-1.317 3.781,-0.762 v 0 l 4.906,-0.754 4.723,-0.566 4.91,-0.566 4.91,-0.379 4.914,-0.188 h 5.094 l 4.914,0.188 5.098,0.379 5.101,0.754 5.098,0.945 5.289,1.133 5.097,1.699 5.29,2.082 5.476,2.262 5.289,3.019 5.477,3.215 -7.555,-46.461 v 0 l -3.023,-1.512 -3.02,-1.511 -3.023,-1.133 -2.832,-1.129 -2.832,-0.949 -3.024,-0.942 -3.019,-0.754 -3.211,-0.57 -3.403,-0.566 -3.773,-0.375 -3.969,-0.379 -4.344,-0.379 -4.906,-0.192 h -5.101 l -5.856,-0.183 h -6.234 v 0 l -9.254,0.183 -9.442,0.95 -9.441,1.32 -9.445,2.266 -9.254,2.832 -8.879,3.593 -8.496,4.715 -7.934,5.481 -7.367,6.422 -6.418,7.742 -5.477,8.687 -4.535,10.012 -3.211,11.141 -2.078,12.656 -0.566,13.973 0.949,15.488 v 0 l 0.75,6.043 1.137,6.988 1.511,7.367 2.075,7.93 2.832,8.121 3.398,8.121 4.352,8.309 5.281,7.933 6.043,7.555 7.367,7.18 8.309,6.42 9.445,5.67 10.953,4.71 12.278,3.41 13.597,2.26 15.301,0.76 v 0 l 7.363,-0.19 7.742,-0.76 7.743,-1.32 7.746,-1.89 7.554,-2.83 7.368,-3.4 6.796,-4.54 6.235,-5.28 5.66,-6.42 4.723,-7.557 3.781,-8.688 2.641,-10.012 1.511,-11.328 0.188,-12.843 -1.321,-14.352 -2.832,-15.867 -0.945,-11.52 h -137.68 l 8.688,37.203 h 82.723 v 0 l 0.375,4.723 -0.188,4.535 -0.379,4.153 -0.754,3.777 -1.324,3.59 -1.32,3.211 -1.887,2.832 -1.891,2.644 -2.265,2.266 -2.453,1.891 -2.836,1.695 -2.832,1.512 -3.024,1.132 -3.019,0.758 -3.211,0.567 -3.399,0.378 v 0 l -3.59,-0.191 -3.398,-0.566 -3.211,-0.754 -3.211,-1.133 -3.211,-1.512 -2.836,-1.699 -2.832,-2.078 -2.453,-2.266 -2.453,-2.644 -2.27,-2.832 -2.078,-3.024 -1.699,-3.211 -1.699,-3.398 -1.32,-3.777 -1.133,-3.778 -0.758,-3.965 -7.555,-39.093"
         style="fill:none;stroke:#ffffff;stroke-width:2.16;stroke-linecap:butt;stroke-linejoin:miter;stroke-miterlimit:2.6131;stroke-dasharray:none;stroke-opacity:1"
         id="path54" /><path
         d="m 1310.72,1014.11 -2.46,1.32 -2.45,1.13 -2.65,1.32 -2.83,1.33 -2.83,1.13 -3.21,1.13 -3.21,1.14 -3.4,1.13 -3.59,0.94 -3.59,0.76 -3.96,0.76 -3.97,0.56 -4.35,0.38 -4.34,0.38 h -4.53 -4.72 -4.73 l -4.91,-0.38 -5.1,-0.57 -5.28,-0.94 -5.29,-1.51 -5.29,-2.08 -5.29,-2.65 -5.29,-3.39 -5.09,-4.16 -4.92,-4.91 -4.72,-6.04 -4.53,-6.988 -4.15,-8.312 -3.97,-9.442 -3.59,-10.578 -3.02,-12.086 -1.14,-6.796 -0.75,-6.61 -0.38,-6.613 0.19,-6.422 0.57,-6.422 1.32,-6.043 1.7,-5.668 2.08,-5.664 2.83,-5.098 3.4,-4.91 3.97,-4.343 4.53,-3.965 5.1,-3.399 5.85,-2.836 6.42,-2.457 7.18,-1.699 2.46,-0.566 2.83,-0.567 3.4,-0.379 3.77,-0.375 4.16,-0.379 h 4.34 4.73 l 4.72,0.379 4.91,0.567 4.91,0.945 4.72,1.32 4.72,1.508 4.72,2.078 4.35,2.461 3.96,3.016 3.78,3.402 -8.5,-50.426 -1.13,-0.945 -1.13,-1.133 -1.51,-1.32 -1.71,-1.137 -2.07,-1.511 -2.65,-1.321 -3.02,-1.32 -3.4,-1.133 -4.34,-1.324 -4.91,-0.945 -5.67,-0.754 -6.61,-0.754 -7.37,-0.379 -8.49,-0.192 -9.64,0.192 -10.57,0.566 -8.69,0.946 -8.69,1.886 -8.68,2.836 -8.69,3.774 -8.31,4.535 -7.94,5.664 -7.55,6.613 -6.99,7.555 -6.23,8.496 -5.29,9.445 -4.53,10.575 -3.4,11.523 -2.26,12.652 -0.76,13.407 0.37,14.734 2.08,15.676 1.51,7.742 1.71,7.555 1.88,7.363 1.89,6.988 2.08,6.61 2.45,6.613 2.46,6.229 2.64,5.86 2.84,5.85 2.83,5.48 3.21,5.29 3.4,4.91 3.4,4.72 3.78,4.53 3.77,4.16 3.97,3.96 4.35,3.78 4.34,3.59 4.53,3.21 4.72,3.02 5.1,2.83 5.1,2.46 5.29,2.27 5.48,2.07 5.85,1.89 5.85,1.51 6.05,1.33 6.42,1.13 6.42,0.94 6.8,0.75 6.8,0.39 7.18,0.18 6.04,-0.18 5.86,-0.39 5.66,-0.55 5.67,-0.77 5.28,-0.75 5.11,-1.13 4.9,-0.95 4.54,-1.13 4.34,-1.13 3.78,-1.14 3.59,-1.13 3.02,-1.13 2.64,-0.95 2.27,-0.76 1.7,-0.75 1.13,-0.38 -9.44,-52.31 v 0"
         style="fill:#ffffff;fill-opacity:1;fill-rule:evenodd;stroke:none"
         id="path56" /><path
         d="m 1310.72,1014.11 v 0 l -2.46,1.32 -2.45,1.13 -2.65,1.32 -2.83,1.33 -2.83,1.13 -3.21,1.13 -3.21,1.14 -3.4,1.13 -3.59,0.94 -3.59,0.76 -3.96,0.76 -3.97,0.56 -4.35,0.38 -4.34,0.38 h -4.53 -4.72 v 0 h -4.73 l -4.91,-0.38 -5.1,-0.57 -5.28,-0.94 -5.29,-1.51 -5.29,-2.08 -5.29,-2.65 -5.29,-3.39 -5.09,-4.16 -4.92,-4.91 -4.72,-6.04 -4.53,-6.988 -4.15,-8.312 -3.97,-9.442 -3.59,-10.578 -3.02,-12.086 v 0 l -1.14,-6.796 -0.75,-6.61 -0.38,-6.613 0.19,-6.422 0.57,-6.422 1.32,-6.043 1.7,-5.668 2.08,-5.664 2.83,-5.098 3.4,-4.91 3.97,-4.343 4.53,-3.965 5.1,-3.399 5.85,-2.836 6.42,-2.457 7.18,-1.699 v 0 l 2.46,-0.566 2.83,-0.567 3.4,-0.379 3.77,-0.375 4.16,-0.379 h 4.34 4.73 l 4.72,0.379 4.91,0.567 4.91,0.945 4.72,1.32 4.72,1.508 4.72,2.078 4.35,2.461 3.96,3.016 3.78,3.402 -8.5,-50.426 v 0 l -1.13,-0.945 -1.13,-1.133 -1.51,-1.32 -1.71,-1.137 -2.07,-1.511 -2.65,-1.321 -3.02,-1.32 -3.4,-1.133 -4.34,-1.324 -4.91,-0.945 -5.67,-0.754 -6.61,-0.754 -7.37,-0.379 -8.49,-0.192 -9.64,0.192 -10.57,0.566 v 0 l -8.69,0.946 -8.69,1.886 -8.68,2.836 -8.69,3.774 -8.31,4.535 -7.94,5.664 -7.55,6.613 -6.99,7.555 -6.23,8.496 -5.29,9.445 -4.53,10.575 -3.4,11.523 -2.26,12.652 -0.76,13.407 0.37,14.734 2.08,15.676 v 0 l 1.51,7.742 1.71,7.555 1.88,7.363 1.89,6.988 2.08,6.61 2.45,6.613 2.46,6.229 2.64,5.86 2.84,5.85 2.83,5.48 3.21,5.29 3.4,4.91 3.4,4.72 3.78,4.53 3.77,4.16 3.97,3.96 4.35,3.78 4.34,3.59 4.53,3.21 4.72,3.02 5.1,2.83 5.1,2.46 5.29,2.27 5.48,2.07 5.85,1.89 5.85,1.51 6.05,1.33 6.42,1.13 6.42,0.94 6.8,0.75 6.8,0.39 7.18,0.18 v 0 l 6.04,-0.18 5.86,-0.39 5.66,-0.55 5.67,-0.77 5.28,-0.75 5.11,-1.13 4.9,-0.95 4.54,-1.13 4.34,-1.13 3.78,-1.14 3.59,-1.13 3.02,-1.13 2.64,-0.95 2.27,-0.76 1.7,-0.75 1.13,-0.38 -9.44,-52.31"
         style="fill:none;stroke:#ffffff;stroke-width:2.16;stroke-linecap:butt;stroke-linejoin:miter;stroke-miterlimit:2.6131;stroke-dasharray:none;stroke-opacity:1"
         id="path58" /><path
         d="m 1775.7,823.172 h -52.32 l 3.78,20.965 v 1.886 l -3.02,-3.777 -3.21,-3.402 -3.22,-3.02 -3.39,-2.644 -3.41,-2.457 -3.39,-2.078 -3.4,-1.7 -3.59,-1.699 -3.59,-1.32 -3.59,-0.946 -3.59,-0.945 -3.77,-0.566 -3.78,-0.567 -3.59,-0.375 -3.78,-0.191 h -3.77 l -9.82,0.758 -9.07,2.078 -8.31,3.207 -7.55,4.344 -6.8,5.476 -6.05,6.422 -5.28,6.992 -4.54,7.93 -3.77,8.496 -3.03,8.879 -2.08,9.254 -1.5,9.633 -0.57,9.633 0.19,9.82 0.94,9.633 1.7,9.632 2.83,11.141 3.41,10.578 3.96,9.633 4.72,9.059 4.91,8.504 5.67,7.554 5.85,6.797 6.24,6.231 6.61,5.48 6.98,4.72 7.18,4.16 7.18,3.21 7.55,2.64 7.56,1.7 7.55,1.13 7.74,0.38 5.48,-0.19 5.29,-0.57 4.91,-0.94 4.53,-1.32 4.35,-1.51 3.77,-1.7 3.78,-2.08 3.4,-2.08 3.02,-2.26 2.84,-2.46 2.45,-2.45 2.26,-2.46 1.9,-2.46 1.69,-2.45 1.52,-2.268 1.13,-2.265 v 0 l 13.22,74.223 h 51.37 L 1775.7,823.172 v 0"
         style="fill:#ffffff;fill-opacity:1;fill-rule:evenodd;stroke:none"
         id="path60" /><path
         d="m 1775.7,823.172 h -52.32 l 3.78,20.965 v 1.886 l -3.02,-3.777 -3.21,-3.402 -3.22,-3.02 -3.39,-2.644 -3.41,-2.457 -3.39,-2.078 -3.4,-1.7 -3.59,-1.699 -3.59,-1.32 -3.59,-0.946 -3.59,-0.945 -3.77,-0.566 -3.78,-0.567 -3.59,-0.375 -3.78,-0.191 h -3.77 v 0 l -9.82,0.758 -9.07,2.078 -8.31,3.207 -7.55,4.344 -6.8,5.476 -6.05,6.422 -5.28,6.992 -4.54,7.93 -3.77,8.496 -3.03,8.879 -2.08,9.254 -1.5,9.633 -0.57,9.633 0.19,9.82 0.94,9.633 1.7,9.632 v 0 l 2.83,11.141 3.41,10.578 3.96,9.633 4.72,9.059 4.91,8.504 5.67,7.554 5.85,6.797 6.24,6.231 6.61,5.48 6.98,4.72 7.18,4.16 7.18,3.21 7.55,2.64 7.56,1.7 7.55,1.13 7.74,0.38 v 0 l 5.48,-0.19 5.29,-0.57 4.91,-0.94 4.53,-1.32 4.35,-1.51 3.77,-1.7 3.78,-2.08 3.4,-2.08 3.02,-2.26 2.84,-2.46 2.45,-2.45 2.26,-2.46 1.9,-2.46 1.69,-2.45 1.52,-2.268 1.13,-2.265 v 0 l 13.22,74.223 h 51.37 L 1775.7,823.172"
         style="fill:none;stroke:#ffffff;stroke-width:2.16;stroke-linecap:butt;stroke-linejoin:miter;stroke-miterlimit:2.6131;stroke-dasharray:none;stroke-opacity:1"
         id="path62" /><path
         d="m 1690.14,868.871 5.29,0.383 4.91,1.129 4.53,1.328 4.35,2.074 3.96,2.266 3.78,2.836 3.59,3.207 3.21,3.402 2.83,3.774 2.64,4.156 2.46,4.344 2.08,4.531 1.89,4.722 1.51,4.911 1.32,5.101 0.94,5.098 0.95,5.289 0.57,5.476 V 938 l -0.19,5.285 -0.57,4.914 -0.76,4.719 -1.32,4.531 -1.51,4.348 -1.89,3.773 -2.26,3.59 -2.46,3.02 -2.83,2.644 -3.21,2.266 -3.4,1.512 -3.59,0.945 -3.97,0.379 -5.1,-0.379 -4.71,-0.754 -4.35,-1.512 -4.35,-1.89 -3.77,-2.457 -3.78,-3.02 -3.21,-3.211 -3.21,-3.586 -2.83,-4.156 -2.65,-4.344 -2.45,-4.531 -2.08,-4.91 -1.89,-5.098 -1.51,-5.101 -1.51,-5.477 -1.13,-5.48 -0.95,-8.309 0.38,-9.063 1.32,-9.257 2.46,-8.875 3.78,-7.743 4.91,-6.234 6.23,-4.156 7.55,-1.512 v 0"
         style="fill:#f9ab1e;fill-opacity:1;fill-rule:evenodd;stroke:none"
         id="path64" /><path
         d="m 530.34,865.098 -7.555,-41.926 h -47.594 l 1.321,7.742 0.949,6.988 0.754,5.286 0.754,2.835 -2.645,-3.023 -3.019,-3.02 -3.586,-2.835 -3.965,-2.645 -4.535,-2.641 -4.723,-2.269 -4.91,-2.266 -5.102,-1.89 -5.476,-1.696 -5.477,-1.324 -5.476,-1.133 -5.664,-0.754 -5.481,-0.379 -5.476,-0.191 -5.286,0.57 -5.101,0.754 -6.609,1.699 -6.043,1.887 -5.29,2.457 -4.722,2.832 -4.156,3.024 -3.778,3.398 -3.019,3.59 -2.645,3.777 -2.265,3.965 -1.891,4.16 -1.508,4.149 -1.137,4.156 -0.754,4.344 -0.566,4.344 -0.379,4.156 v 4.156 l 0.567,7.363 1.132,6.989 1.891,6.609 2.453,6.422 3.024,6.043 3.398,5.48 3.969,5.285 4.535,4.723 4.719,4.344 5.289,3.965 5.472,3.586 5.668,3.023 6.043,2.645 6.239,2.078 6.418,1.699 6.609,1.133 h 0.375 l 0.945,0.191 1.328,0.188 2.075,0.187 2.265,0.379 2.645,0.188 2.832,0.378 3.211,0.379 3.211,0.379 3.207,0.375 3.402,0.192 3.023,0.375 3.02,0.191 2.832,0.188 2.645,0.187 h 2.078 4.343 l 4.536,-0.187 4.152,-0.188 h 4.156 l 3.399,-0.191 2.644,-0.188 1.887,-0.187 h 0.57 l 0.375,1.32 1.133,3.398 0.945,3.969 0.379,3.59 -0.758,4.152 -1.699,3.778 -2.265,3.398 -3.02,2.832 -3.59,2.453 -3.969,1.703 -4.531,1.133 -4.91,0.379 -5.289,0.188 -5.664,0.187 h -5.856 l -6.046,-0.187 -6.231,-0.379 -6.043,-0.563 -6.043,-0.57 -5.855,-0.754 -5.668,-0.754 -5.477,-0.945 -4.91,-0.946 -4.527,-0.945 -4.16,-1.133 -3.399,-1.132 -2.644,-1.325 -2.079,-1.129 13.411,45.514 4.156,1.7 4.152,1.51 4.535,1.32 4.532,0.95 4.531,0.94 4.914,0.76 4.91,0.75 5.098,0.38 5.289,0.38 5.476,0.19 5.664,0.18 h 5.86 6.043 6.23 l 6.61,-0.18 6.609,-0.19 5.289,-0.38 5.668,-0.94 5.852,-1.32 6.046,-1.7 5.852,-2.27 5.668,-2.64 5.664,-3.22 5.289,-3.59 4.723,-4.15 4.152,-4.53 3.781,-5.104 2.832,-5.664 1.887,-6.043 1.133,-6.422 v -7.18 l -1.133,-7.554 -19.074,-99.715 v 0"
         style="fill:#ffffff;fill-opacity:1;fill-rule:evenodd;stroke:none"
         id="path66" /><path
         d="m 530.34,865.098 -7.555,-41.926 h -47.594 v 0 l 1.321,7.742 0.949,6.988 0.754,5.286 0.754,2.835 v 0 l -2.645,-3.023 -3.019,-3.02 -3.586,-2.835 -3.965,-2.645 -4.535,-2.641 -4.723,-2.269 -4.91,-2.266 -5.102,-1.89 -5.476,-1.696 -5.477,-1.324 -5.476,-1.133 -5.664,-0.754 -5.481,-0.379 -5.476,-0.191 -5.286,0.57 -5.101,0.754 v 0 l -6.609,1.699 -6.043,1.887 -5.29,2.457 -4.722,2.832 -4.156,3.024 -3.778,3.398 -3.019,3.59 -2.645,3.777 -2.265,3.965 -1.891,4.16 -1.508,4.149 -1.137,4.156 -0.754,4.344 -0.566,4.344 -0.379,4.156 v 4.156 0 l 0.567,7.363 1.132,6.989 1.891,6.609 2.453,6.422 3.024,6.043 3.398,5.48 3.969,5.285 4.535,4.723 4.719,4.344 5.289,3.965 5.472,3.586 5.668,3.023 6.043,2.645 6.239,2.078 6.418,1.699 6.609,1.133 v 0 h 0.375 l 0.945,0.191 1.328,0.188 2.075,0.187 2.265,0.379 2.645,0.188 2.832,0.378 3.211,0.379 3.211,0.379 3.207,0.375 3.402,0.192 3.023,0.375 3.02,0.191 2.832,0.188 2.645,0.187 h 2.078 v 0 h 4.343 l 4.536,-0.187 4.152,-0.188 h 4.156 l 3.399,-0.191 2.644,-0.188 1.887,-0.187 h 0.57 v 0 l 0.375,1.32 1.133,3.398 0.945,3.969 0.379,3.59 v 0 l -0.758,4.152 -1.699,3.778 -2.265,3.398 -3.02,2.832 -3.59,2.453 -3.969,1.703 -4.531,1.133 -4.91,0.379 v 0 l -5.289,0.188 -5.664,0.187 h -5.856 l -6.046,-0.187 -6.231,-0.379 -6.043,-0.563 -6.043,-0.57 -5.855,-0.754 -5.668,-0.754 -5.477,-0.945 -4.91,-0.946 -4.527,-0.945 -4.16,-1.133 -3.399,-1.132 -2.644,-1.325 -2.079,-1.129 13.411,45.514 v 0 l 4.156,1.7 4.152,1.51 4.535,1.32 4.532,0.95 4.531,0.94 4.914,0.76 4.91,0.75 5.098,0.38 5.289,0.38 5.476,0.19 5.664,0.18 h 5.86 6.043 6.23 l 6.61,-0.18 6.609,-0.19 v 0 l 5.289,-0.38 5.668,-0.94 5.852,-1.32 6.046,-1.7 5.852,-2.27 5.668,-2.64 5.664,-3.22 5.289,-3.59 4.723,-4.15 4.152,-4.53 3.781,-5.104 2.832,-5.664 1.887,-6.043 1.133,-6.422 v -7.18 l -1.133,-7.554 -19.074,-99.715"
         style="fill:none;stroke:#ffffff;stroke-width:2.16;stroke-linecap:butt;stroke-linejoin:miter;stroke-miterlimit:2.6131;stroke-dasharray:none;stroke-opacity:1"
         id="path68" /><path
         d="m 484.824,914.391 -0.191,0.945 -0.754,0.945 -1.133,0.567 -1.887,0.375 -2.078,0.379 -2.457,0.187 h -2.832 -2.832 l -3.023,-0.187 -3.211,-0.379 -3.024,-0.375 -3.019,-0.383 -2.832,-0.375 -2.645,-0.567 -2.265,-0.566 -2.078,-0.566 -1.325,-0.379 -1.511,-0.567 -2.075,-0.754 -2.078,-0.945 -2.457,-1.133 -2.453,-1.324 -2.644,-1.32 -2.457,-1.512 -2.641,-1.887 -2.453,-1.89 -2.27,-2.266 -2.078,-2.266 -1.887,-2.457 -1.324,-2.64 -1.133,-3.024 -0.566,-3.019 -0.188,-6.426 0.942,-5.098 1.89,-3.773 2.458,-2.84 2.832,-1.887 3.214,-1.132 3.016,-0.567 3.027,-0.187 5.664,0.187 5.094,0.567 4.918,0.757 4.34,1.137 3.777,1.317 3.59,1.699 3.207,1.699 2.836,2.078 2.453,1.887 2.266,2.269 1.891,2.078 1.511,2.266 1.321,2.266 1.132,2.265 0.946,2.078 0.566,2.079 1.512,5.476 1.32,6.235 1.133,6.042 0.945,4.911 v 0"
         style="fill:#ed192d;fill-opacity:1;fill-rule:evenodd;stroke:none"
         id="path70" /><path
         d="M 132.973,823.172 H 81.6055 l 42.8715,247.968 h 89.328 l 8.5,-147.12 61.758,147.12 h 93.304 L 333.543,823.172 h -51.367 l 32.484,185.268 h -2.078 L 235.715,823.172 H 177.73 l -0.375,7.742 -1.32,20.586 -1.703,29.273 -1.887,33.618 -1.886,33.808 -1.704,29.649 -1.32,21.531 -0.379,9.061 h -0.566 -1.133 -1.133 v 0 L 132.973,823.172 v 0"
         style="fill:#ffffff;fill-opacity:1;fill-rule:evenodd;stroke:none"
         id="path72" /><path
         d="M 132.973,823.172 H 81.6055 l 42.8715,247.968 h 89.328 l 8.5,-147.12 61.758,147.12 h 93.304 L 333.543,823.172 h -51.367 l 32.484,185.268 h -2.078 L 235.715,823.172 H 177.73 v 0 l -0.375,7.742 -1.32,20.586 -1.703,29.273 -1.887,33.618 -1.886,33.808 -1.704,29.649 -1.32,21.531 -0.379,9.061 v 0 h -0.566 -1.133 -1.133 v 0 L 132.973,823.172"
         style="fill:none;stroke:#ffffff;stroke-width:2.16;stroke-linecap:butt;stroke-linejoin:miter;stroke-miterlimit:2.6131;stroke-dasharray:none;stroke-opacity:1"
         id="path74" /><path
         d="m 1467.67,865.098 -7.75,-41.926 h -47.4 l 0.37,7.742 0.2,6.797 v 5.102 l 0.37,2.265 -2.46,-2.832 -2.83,-2.832 -3.4,-2.644 -3.77,-2.645 -3.97,-2.457 -4.53,-2.266 -4.73,-2.265 -4.72,-1.891 -5.1,-1.508 -5.28,-1.511 -5.29,-0.946 -5.29,-0.754 -5.48,-0.379 -5.29,-0.191 -5.1,0.57 -5.09,0.754 -6.81,1.699 -6.04,1.887 -5.28,2.457 -4.91,2.832 -4.16,3.024 -3.59,3.398 -3.02,3.59 -2.64,3.777 -2.27,3.965 -1.7,4.16 -1.51,4.149 -0.95,4.156 -0.75,4.344 -0.57,4.344 -0.38,4.156 v 4.156 l 0.38,7.363 1.13,6.989 1.71,6.609 2.45,6.422 2.83,6.043 3.59,5.48 3.97,5.285 4.34,4.723 4.91,4.344 5.1,3.965 5.48,3.586 5.85,3.023 5.86,2.645 6.23,2.078 6.23,1.699 6.43,1.133 h 0.37 l 0.95,0.191 1.32,0.188 1.89,0.187 2.45,0.379 2.65,0.188 2.83,0.378 3.02,0.379 3.21,0.379 3.4,0.375 3.21,0.192 3.21,0.375 3.02,0.191 2.65,0.188 2.64,0.187 h 2.08 4.53 l 4.53,-0.187 4.35,-0.188 h 4.15 l 3.59,-0.191 3.02,-0.188 1.71,-0.187 h 0.75 l 0.38,1.32 0.56,3.398 0.57,3.969 0.38,3.59 -0.76,4.152 -1.5,3.778 -2.47,3.398 -2.83,2.832 -3.4,2.453 -3.96,1.703 -4.16,1.133 -4.53,0.379 -5.29,0.188 -5.67,0.187 h -5.85 l -6.04,-0.187 -6.24,-0.379 -6.04,-0.563 -6.04,-0.57 -5.86,-0.754 -5.66,-0.754 -5.48,-0.945 -4.91,-0.946 -4.53,-0.945 -4.16,-1.133 -3.4,-1.132 -2.64,-1.325 -2.08,-1.129 13.22,45.514 4.16,1.7 4.34,1.51 4.34,1.32 4.53,0.95 4.73,0.94 4.72,0.76 4.91,0.75 5.1,0.38 5.29,0.38 5.47,0.19 5.48,0.18 h 5.86 5.85 6.04 l 6.43,-0.18 6.41,-0.19 5.3,-0.38 5.66,-0.94 5.86,-1.32 6.04,-1.7 5.85,-2.27 5.86,-2.64 5.66,-3.22 5.29,-3.59 4.72,-4.15 4.35,-4.53 3.78,-5.104 2.83,-5.664 2.07,-6.043 1.33,-6.422 v -7.18 l -0.95,-7.554 -19.82,-99.715 v 0"
         style="fill:#ffffff;fill-opacity:1;fill-rule:evenodd;stroke:none"
         id="path76" /><path
         d="m 1459.92,821.848 1.13,1.132 7.74,41.926 -2.26,0.379 -7.74,-41.93 1.13,1.137 v -2.644 l 0.94,0.187 0.19,0.945 -1.13,-1.132 v 0"
         style="fill:#ffffff;fill-opacity:1;fill-rule:evenodd;stroke:none"
         id="path78" /><path
         d="m 1411.38,823.172 1.14,-1.324 h 47.4 v 2.644 h -47.4 l 1.13,-1.32 h -2.27 l -0.19,-1.324 h 1.33 l -1.14,1.324 v 0"
         style="fill:#ffffff;fill-opacity:1;fill-rule:evenodd;stroke:none"
         id="path80" /><path
         d="m 1414.4,844.32 -1.69,1.512 -0.76,-3.019 -0.19,-5.102 v -6.797 l -0.38,-7.742 h 2.27 l 0.38,7.742 0.37,6.797 -0.19,5.102 v 1.507 l -1.69,1.512 1.88,-1.512 v 0"
         style="fill:#ffffff;fill-opacity:1;fill-rule:evenodd;stroke:none"
         id="path82" /><path
         d="m 1340.93,820.148 v 0 l 5.29,-0.757 5.1,-0.567 5.29,0.192 5.48,0.375 5.48,0.757 5.29,0.946 5.28,1.511 5.29,1.508 4.72,1.887 4.91,2.27 4.53,2.265 3.97,2.645 3.97,2.644 3.4,2.645 3.02,3.023 2.45,2.828 -1.88,1.512 -2.46,-2.832 -2.64,-2.645 -3.4,-2.644 -3.59,-2.645 -3.97,-2.265 -4.53,-2.266 -4.54,-2.265 -4.71,-1.891 -4.92,-1.512 -5.28,-1.512 -5.29,-0.941 -5.1,-0.754 -5.48,-0.379 -5.29,-0.187 -5.1,0.566 -4.9,0.754 v 0 l -0.39,-2.266 v 0"
         style="fill:#ffffff;fill-opacity:1;fill-rule:evenodd;stroke:none"
         id="path84" /><path
         d="m 1295.23,877.375 v 0 l 0.19,-4.156 0.38,-4.156 0.56,-4.532 0.76,-4.343 0.94,-4.157 1.51,-4.343 1.7,-4.344 2.46,-3.965 2.65,-3.965 3.02,-3.59 3.77,-3.59 4.35,-3.019 4.91,-3.024 5.47,-2.453 6.24,-1.89 6.79,-1.7 0.39,2.266 -6.8,1.699 -5.86,1.887 -5.1,2.461 -4.91,2.641 -3.97,3.023 -3.39,3.211 -3.03,3.586 -2.64,3.59 -2.08,3.965 -1.7,3.964 -1.51,3.969 -0.94,4.156 -0.76,4.34 -0.57,4.157 -0.37,4.156 0.19,4.156 v 0 h -2.65 v 0"
         style="fill:#ffffff;fill-opacity:1;fill-rule:evenodd;stroke:none"
         id="path86" /><path
         d="m 1363.04,949.895 v 0 l -6.62,-1.133 -6.42,-1.699 -6.23,-2.079 -6.04,-2.644 -5.86,-3.02 -5.67,-3.777 -5.09,-3.969 -4.91,-4.531 -4.54,-4.719 -3.96,-5.289 -3.78,-5.668 -2.83,-6.23 -2.46,-6.422 -1.7,-6.801 -1.13,-7.176 -0.57,-7.363 h 2.65 l 0.18,7.363 1.14,6.801 1.7,6.422 2.45,6.418 2.83,5.855 3.4,5.289 3.97,5.29 4.15,4.718 4.92,4.157 5.09,3.964 5.29,3.403 5.86,3.023 5.66,2.641 6.24,2.078 6.04,1.699 6.24,1.133 v 0 2.266 0"
         style="fill:#ffffff;fill-opacity:1;fill-rule:evenodd;stroke:none"
         id="path88" /><path
         d="m 1401.94,953.859 v 0 h -2.08 l -2.64,-0.375 -2.65,-0.191 -3.02,-0.188 -3.21,-0.375 -3.21,-0.191 -3.4,-0.375 -3.21,-0.379 -3.02,-0.379 -2.83,-0.375 -2.65,-0.191 -2.45,-0.379 -1.89,-0.188 -1.52,-0.187 -0.75,-0.191 h -0.37 v -2.266 h 0.37 l 1.13,0.187 1.14,0.192 1.89,0.191 2.45,0.375 2.65,0.188 2.83,0.379 3.02,0.379 3.21,0.375 3.4,0.378 3.21,0.188 3.21,0.379 3.02,0.191 2.65,0.188 h 2.64 2.08 v 0 2.64 0"
         style="fill:#ffffff;fill-opacity:1;fill-rule:evenodd;stroke:none"
         id="path90" /><path
         d="m 1427.43,951.785 1.14,0.945 h -0.75 l -1.71,0.188 -3.02,0.187 -3.59,0.379 h -4.15 -4.35 l -4.53,0.375 h -4.53 v -2.64 h 4.53 4.53 l 4.35,-0.379 h 4.15 3.59 l 3.02,-0.188 1.71,-0.191 h 0.75 l 1.13,0.945 -1.13,-0.945 0.94,-0.188 0.19,1.133 -2.27,0.379 v 0"
         style="fill:#ffffff;fill-opacity:1;fill-rule:evenodd;stroke:none"
         id="path92" /><path
         d="m 1429.32,963.875 h -0.18 l -0.19,-3.59 -0.57,-3.781 -0.56,-3.399 -0.39,-1.32 2.27,-0.379 0.38,1.324 0.56,3.399 0.57,4.156 0.57,3.59 h -0.19 -2.27 v 0"
         style="fill:#ffffff;fill-opacity:1;fill-rule:evenodd;stroke:none"
         id="path94" /><path
         d="m 1406.85,982.566 v -0.187 l 4.34,-0.188 3.97,-1.132 3.78,-1.7 3.21,-2.269 2.64,-2.645 2.27,-3.207 1.51,-3.402 0.75,-3.961 h 2.27 l -0.76,4.34 -1.51,4.152 -2.64,3.59 -3.02,3.023 -3.59,2.645 -4.16,1.699 -4.34,1.133 -4.72,0.566 v -0.187 -2.27 0"
         style="fill:#ffffff;fill-opacity:1;fill-rule:evenodd;stroke:none"
         id="path96" /><path
         d="m 1325.83,973.504 1.88,-1.137 1.9,0.949 2.45,1.321 3.21,1.133 4.16,1.132 4.53,0.946 4.91,0.945 5.47,0.941 5.48,0.754 5.86,0.758 6.04,0.567 6.04,0.566 6.24,0.379 h 6.04 5.85 5.67 l 5.29,-0.192 v 2.27 l -5.29,0.187 -5.67,0.379 h -5.85 l -6.04,-0.379 -6.24,-0.378 -6.04,-0.567 -6.04,-0.566 -5.86,-0.754 -5.85,-0.758 -5.48,-0.941 -4.91,-0.946 -4.53,-0.945 -4.16,-1.133 -3.59,-1.133 -2.83,-1.32 -2.27,-1.324 1.89,-1.133 -2.26,0.379 v 0"
         style="fill:#ffffff;fill-opacity:1;fill-rule:evenodd;stroke:none"
         id="path98" /><path
         d="m 1339.8,1019.96 -0.75,-0.94 -13.22,-45.516 2.26,-0.379 13.23,45.515 -0.76,-0.94 -0.76,2.26 -0.56,-0.19 -0.19,-0.75 0.75,0.94 v 0"
         style="fill:#ffffff;fill-opacity:1;fill-rule:evenodd;stroke:none"
         id="path100" /><path
         d="m 1423.84,1028.65 v 0 l -6.41,0.38 -6.43,0.19 h -6.04 -5.85 -5.86 l -5.48,-0.38 -5.47,-0.19 -5.29,-0.38 -5.1,-0.38 -5.1,-0.75 -4.72,-0.75 -4.72,-0.95 -4.53,-0.94 -4.54,-1.32 -4.34,-1.52 -4.16,-1.7 0.76,-2.26 4.15,1.69 4.34,1.52 4.16,1.32 4.54,0.95 4.72,0.94 4.72,0.76 4.72,0.75 5.1,0.38 5.29,0.38 5.47,0.18 h 5.48 5.86 5.85 6.04 l 6.43,-0.18 h 6.41 v 0 2.26 0"
         style="fill:#ffffff;fill-opacity:1;fill-rule:evenodd;stroke:none"
         id="path102" /><path
         d="m 1488.63,964.629 v 0 l 0.94,7.738 v 7.18 l -1.32,6.609 -2.08,6.235 -3.02,5.851 -3.78,5.288 -4.53,4.72 -4.72,4.16 -5.48,3.59 -5.66,3.39 -6.05,2.65 -5.86,2.27 -6.23,1.7 -5.85,1.32 -5.85,0.94 -5.3,0.38 v -2.26 l 5.3,-0.38 5.47,-0.95 5.85,-1.32 5.86,-1.7 5.86,-2.27 5.66,-2.64 5.67,-3.02 5.1,-3.59 4.72,-4.16 4.15,-4.34 3.78,-4.907 2.65,-5.48 2.07,-5.856 1.32,-6.23 v -7.18 l -0.94,-7.363 v 0 l 2.27,-0.375 v 0"
         style="fill:#ffffff;fill-opacity:1;fill-rule:evenodd;stroke:none"
         id="path104" /><path
         d="m 1468.79,864.906 v 0 l 19.84,99.723 -2.27,0.375 -19.83,-99.719 v 0 l 2.26,-0.379 v 0"
         style="fill:#ffffff;fill-opacity:1;fill-rule:evenodd;stroke:none"
         id="path106" /><path
         d="m 1421.96,914.391 -0.38,1.132 -0.75,0.942 -1.33,0.57 -1.89,0.567 -2.07,0.187 -2.45,0.188 h -2.84 l -2.83,-0.188 -3.02,-0.379 -3.03,-0.375 -3.02,-0.379 -2.83,-0.375 -2.84,-0.57 -2.45,-0.375 -2.46,-0.566 -1.89,-0.379 -1.32,-0.188 -1.51,-0.57 -1.88,-0.567 -2.08,-0.753 -2.46,-1.133 -2.27,-1.133 -2.64,-1.32 -2.45,-1.704 -2.46,-1.699 -2.45,-2.078 -2.08,-2.074 -2.08,-2.457 -1.7,-2.645 -1.32,-2.832 -1.14,-3.023 -0.56,-3.207 -0.19,-6.426 0.94,-5.098 1.52,-3.773 2.26,-2.84 2.83,-1.887 3.21,-1.132 3.22,-0.567 3.21,-0.187 5.66,0.187 5.29,0.567 4.91,0.945 4.34,1.32 4.16,1.512 3.59,1.703 3.4,1.887 3.02,2.265 2.64,2.079 2.27,2.453 2.08,2.269 1.7,2.453 1.32,2.27 0.94,2.262 0.76,2.269 0.57,2.074 0.75,5.289 0.95,5.477 0.75,5.289 0.38,4.723 v 0"
         style="fill:#f9ab1e;fill-opacity:1;fill-rule:evenodd;stroke:none"
         id="path108" /><path
         d="m 1811.01,849.043 0.38,4.344 1.51,5.101 2.65,4.532 3.21,3.964 3.96,3.211 4.53,2.266 4.92,1.512 5.28,0.566 5.29,-0.566 4.91,-1.512 4.54,-2.266 3.96,-3.211 3.21,-3.964 2.65,-4.532 1.51,-5.101 0.37,-4.344 h -5.66 l -0.19,3.398 -1.13,4.157 -1.89,3.777 -2.46,3.211 -3.02,2.644 -3.59,1.887 -4.15,1.324 -4.35,0.379 -4.34,-0.379 -4.15,-1.324 -3.59,-1.887 -3.03,-2.644 -2.45,-3.211 -1.89,-3.777 -1.13,-4.157 -0.38,-3.398 h -5.48 v 0"
         style="fill:#ffffff;fill-opacity:1;fill-rule:evenodd;stroke:none"
         id="path110" /><path
         d="m 1828.01,849.043 v 11.332 h 10.39 l 2.26,-0.187 2.08,-0.379 1.51,-0.567 1.32,-0.754 0.95,-1.136 0.76,-1.133 0.37,-1.321 0.19,-1.32 -0.19,-1.703 -0.37,-1.32 -0.57,-1.133 -0.38,-0.379 h -7.93 l 0.76,0.187 1.32,0.192 1.13,0.375 0.94,0.379 0.76,0.566 0.38,0.567 0.38,0.945 v 1.324 l -0.19,0.942 -0.38,0.753 -0.57,0.383 -0.57,0.375 -0.94,0.188 -0.94,0.191 h -0.95 -1.13 -5.67 v -7.367 h -4.72 v 0"
         style="fill:#ffffff;fill-opacity:1;fill-rule:evenodd;stroke:none"
         id="path112" /><path
         d="m 1811.01,849.043 -0.19,-1.133 0.57,-5.476 1.51,-5.098 2.65,-4.535 3.21,-3.778 3.96,-3.207 4.53,-2.461 4.92,-1.507 5.28,-0.567 5.29,0.567 4.91,1.507 4.54,2.461 3.96,3.207 3.21,3.778 2.65,4.535 1.51,5.098 0.57,5.476 -0.2,1.133 h -5.66 l 0.19,-1.133 -0.38,-4.531 -1.13,-4.156 -1.89,-3.59 -2.46,-3.203 -3.02,-2.649 -3.59,-2.078 -4.15,-1.324 -4.35,-0.379 -4.34,0.379 -4.15,1.324 -3.59,2.078 -3.03,2.649 -2.45,3.203 -1.89,3.59 -1.13,4.156 -0.38,4.531 v 1.133 h -5.48 v 0"
         style="fill:#ffffff;fill-opacity:1;fill-rule:evenodd;stroke:none"
         id="path114" /><path
         d="m 1828.01,849.043 v -11.52 h 4.72 v 9.442 h 4.72 l 5.67,-9.442 h 3.78 l -5.67,9.442 h 1.32 l 1.33,0.379 1.13,0.379 0.94,0.754 0.38,0.566 h -7.93 l -0.95,-0.188 h -4.72 v 0.188 h -4.72 v 0"
         style="fill:#ffffff;fill-opacity:1;fill-rule:evenodd;stroke:none"
         id="path116" /><path
         d="m 1810.82,847.91 v 0 l 0.57,5.477 1.51,5.101 2.65,4.532 3.21,3.964 3.96,3.211 4.53,2.266 4.92,1.512 5.28,0.566 v 0 l 5.29,-0.566 4.91,-1.512 4.54,-2.266 3.96,-3.211 3.21,-3.964 2.65,-4.532 1.51,-5.101 0.57,-5.477 v 0 l -0.57,-5.476 -1.51,-5.098 -2.65,-4.535 -3.21,-3.778 -3.96,-3.207 -4.54,-2.461 -4.91,-1.507 -5.29,-0.567 v 0 l -5.28,0.567 -4.92,1.507 -4.53,2.461 -3.96,3.207 -3.21,3.778 -2.65,4.535 -1.51,5.098 -0.57,5.476"
         style="fill:none;stroke:#ffffff;stroke-width:2.16;stroke-linecap:butt;stroke-linejoin:miter;stroke-miterlimit:2.6131;stroke-dasharray:none;stroke-opacity:1"
         id="path118" /><path
         d="m 1832.73,837.523 h -4.72 v 22.852 h 10.39 v 0 l 2.26,-0.187 2.08,-0.379 1.51,-0.567 1.32,-0.754 0.95,-1.136 0.76,-1.133 0.37,-1.321 0.19,-1.32 v 0 l -0.19,-1.703 -0.37,-1.32 -0.57,-1.133 -0.76,-0.945 -0.94,-0.754 -1.13,-0.379 -1.33,-0.379 h -1.32 l 5.67,-9.442 h -3.78 l -5.67,9.442 h -4.72 v -9.442"
         style="fill:none;stroke:#ffffff;stroke-width:2.16;stroke-linecap:butt;stroke-linejoin:miter;stroke-miterlimit:2.6131;stroke-dasharray:none;stroke-opacity:1"
         id="path120" /><path
         d="m 1837.45,848.855 v 0 l 1.71,0.375 1.32,0.192 1.13,0.375 0.94,0.379 0.76,0.566 0.38,0.567 0.38,0.945 v 1.324 0 l -0.19,0.942 -0.38,0.753 -0.57,0.383 -0.57,0.375 -0.94,0.188 -0.94,0.191 h -0.95 -1.13 -5.67 v -7.555 h 4.72"
         style="fill:none;stroke:#ffffff;stroke-width:2.16;stroke-linecap:butt;stroke-linejoin:miter;stroke-miterlimit:2.6131;stroke-dasharray:none;stroke-opacity:1"
         id="path122" /><path
         d="m 1837.45,826 v 0 l 4.35,0.379 4.15,1.324 3.59,2.078 3.02,2.649 2.46,3.203 1.89,3.59 1.13,4.156 0.38,4.531 v 0 l -0.38,4.531 -1.13,4.157 -1.89,3.777 -2.46,3.211 -3.02,2.644 -3.59,1.887 -4.15,1.324 -4.35,0.379 v 0 l -4.34,-0.379 -4.15,-1.324 -3.59,-1.887 -3.03,-2.644 -2.45,-3.211 -1.89,-3.777 -1.13,-4.157 -0.38,-4.531 v 0 l 0.38,-4.531 1.13,-4.156 1.89,-3.59 2.45,-3.203 3.03,-2.649 3.59,-2.078 4.15,-1.324 4.34,-0.379"
         style="fill:none;stroke:#ffffff;stroke-width:2.16;stroke-linecap:butt;stroke-linejoin:miter;stroke-miterlimit:2.6131;stroke-dasharray:none;stroke-opacity:1"
         id="path124" /><path
         d="m 1481.83,823.172 h 53.26 v 0 l 19.07,107.461 0.76,4.152 1.13,4.156 1.13,4.157 1.52,4.152 1.88,4.156 2.27,3.965 2.45,3.781 3.03,3.586 3.4,3.211 3.77,3.02 4.35,2.836 4.91,2.265 5.47,1.887 6.05,1.512 6.61,1.133 7.36,0.378 h 2.64 1.52 0.56 v 0 l 8.5,48.54 -5.28,-0.38 -5.1,-0.57 -4.73,-0.94 -4.53,-1.32 -4.15,-1.51 -3.97,-1.89 -3.78,-2.08 -3.59,-2.27 -3.39,-2.64 -3.22,-2.65 -3.02,-3.02 -3.02,-3.02 -2.83,-3.21 -2.83,-3.586 -2.83,-3.399 -2.65,-3.781 5.67,34.186 h -53.08 l -35.31,-202.268 v 0 0"
         style="fill:#ffffff;fill-opacity:1;fill-rule:evenodd;stroke:none"
         id="path126" /><path
         d="m 1481.83,823.172 h 53.26 v 0 l 19.07,107.461 v 0 l 0.76,4.152 1.13,4.156 1.13,4.157 1.52,4.152 1.88,4.156 2.27,3.965 2.45,3.781 3.03,3.586 3.4,3.211 3.77,3.02 4.35,2.836 4.91,2.265 5.47,1.887 6.05,1.512 6.61,1.133 7.36,0.378 v 0 h 2.64 1.52 0.56 v 0 l 8.5,48.54 v 0 l -5.28,-0.38 -5.1,-0.57 -4.73,-0.94 -4.53,-1.32 -4.15,-1.51 -3.97,-1.89 -3.78,-2.08 -3.59,-2.27 -3.39,-2.64 -3.22,-2.65 -3.02,-3.02 -3.02,-3.02 -2.83,-3.21 -2.83,-3.586 -2.83,-3.399 -2.65,-3.781 5.67,34.186 h -53.08 l -35.31,-202.268 v 0"
         style="fill:none;stroke:#ffffff;stroke-width:2.16;stroke-linecap:butt;stroke-linejoin:miter;stroke-miterlimit:2.6131;stroke-dasharray:none;stroke-opacity:1"
         id="path128" /><path
         d="m 981.719,823.172 h 54.211 l 18.12,107.461 0.76,4.152 0.94,3.969 0.95,3.965 1.32,3.777 1.51,3.777 1.89,3.586 2.27,3.403 2.64,3.211 3.02,2.832 3.4,2.832 4.16,2.265 4.53,2.078 5.29,1.7 5.85,1.511 6.42,0.946 7.37,0.566 h 0.56 l 0.76,-0.191 0.95,-0.188 h 0.94 l 0.94,-0.187 0.76,-0.192 0.56,-0.187 h 0.2 l 0.18,0.754 0.57,2.269 0.76,3.399 0.94,4.156 1.32,4.91 1.32,5.289 1.71,5.285 1.69,5.29 1.51,3.59 1.89,3.59 1.89,3.59 1.89,3.21 1.7,2.83 1.32,2.26 0.95,1.33 0.37,0.56 h -0.18 l -0.76,0.19 -0.95,0.19 -1.32,0.19 h -1.32 l -1.51,0.19 -1.32,0.19 h -1.32 l -5.86,-0.38 -5.29,-0.57 -4.91,-0.94 -4.53,-1.13 -4.34,-1.52 -3.97,-1.88 -3.59,-1.89 -3.4,-2.27 -3.21,-2.46 -3.02,-2.83 -2.83,-2.83 -2.84,-3.21 -2.83,-3.21 -2.64,-3.591 -2.84,-3.774 -2.83,-3.781 6.8,34.186 h -54.2 L 981.719,823.172 v 0 0"
         style="fill:#ffffff;fill-opacity:1;fill-rule:evenodd;stroke:none"
         id="path130" /><path
         d="m 981.719,823.172 h 54.211 l 18.12,107.461 v 0 l 0.76,4.152 0.94,3.969 0.95,3.965 1.32,3.777 1.51,3.777 1.89,3.586 2.27,3.403 2.64,3.211 3.02,2.832 3.4,2.832 4.16,2.265 4.53,2.078 5.29,1.7 5.85,1.511 6.42,0.946 7.37,0.566 v 0 h 0.56 l 0.76,-0.191 0.95,-0.188 h 0.94 l 0.94,-0.187 0.76,-0.192 0.56,-0.187 h 0.2 v 0 l 0.18,0.754 0.57,2.269 0.76,3.399 0.94,4.156 1.32,4.91 1.32,5.289 1.71,5.285 1.69,5.29 v 0 l 1.51,3.59 1.89,3.59 1.89,3.59 1.89,3.21 1.7,2.83 1.32,2.26 0.95,1.33 0.37,0.56 v 0 h -0.18 l -0.76,0.19 -0.95,0.19 -1.32,0.19 h -1.32 l -1.51,0.19 -1.32,0.19 h -1.32 v 0 l -5.86,-0.38 -5.29,-0.57 -4.91,-0.94 -4.53,-1.13 -4.34,-1.52 -3.97,-1.88 -3.59,-1.89 -3.4,-2.27 -3.21,-2.46 -3.02,-2.83 -2.83,-2.83 -2.84,-3.21 -2.83,-3.21 -2.64,-3.591 -2.84,-3.774 -2.83,-3.781 6.8,34.186 h -54.2 L 981.719,823.172 v 0"
         style="fill:none;stroke:#ffffff;stroke-width:2.16;stroke-linecap:butt;stroke-linejoin:miter;stroke-miterlimit:2.6131;stroke-dasharray:none;stroke-opacity:1"
         id="path132" /><path
         d="m 1811.39,624.488 v 0.754 l 1.51,4.91 2.65,4.344 3.21,3.777 3.96,3.024 4.53,2.266 4.92,1.32 5.28,0.566 5.29,-0.566 4.91,-1.32 4.54,-2.266 3.96,-3.024 3.21,-3.777 2.65,-4.344 1.51,-4.91 v -0.754 h -5.48 l -1.13,3.965 -1.89,3.59 -2.46,3.211 -3.02,2.641 -3.59,2.078 -4.15,1.324 -4.35,0.375 -4.34,-0.375 -4.15,-1.324 -3.59,-2.078 -3.03,-2.641 -2.45,-3.211 -1.89,-3.59 -1.13,-3.965 h -5.48 v 0"
         style="fill:#f9ab1e;fill-opacity:1;fill-rule:evenodd;stroke:none"
         id="path134" /><path
         d="m 1828.01,624.488 v 6.61 h 12.65 l 2.08,-0.379 1.51,-0.379 1.32,-0.754 0.95,-0.945 0.76,-1.133 0.37,-1.324 0.19,-1.696 h -3.77 v 0.942 l -0.19,0.945 -0.38,0.758 -0.57,0.375 -0.57,0.379 -0.94,0.187 -0.94,0.188 h -0.95 -1.13 -5.67 v -3.774 h -4.72 v 0"
         style="fill:#f9ab1e;fill-opacity:1;fill-rule:evenodd;stroke:none"
         id="path136" /><path
         d="m 1810.82,620.332 0.57,4.156 h 5.48 v -0.191 l -0.38,-3.965 h -5.67 v 0"
         style="fill:#f9ab1e;fill-opacity:1;fill-rule:evenodd;stroke:none"
         id="path138" /><path
         d="m 1828.01,620.332 v 4.156 h 4.72 v -3.781 h 4.72 l 1.71,0.383 1.32,0.183 1.13,0.379 0.94,0.379 0.76,0.567 0.38,0.566 0.38,0.945 v 0.379 h 3.77 v 0 l -0.19,-1.324 -0.37,-1.133 -0.57,-0.941 -0.76,-0.758 h -17.94 v 0"
         style="fill:#f9ab1e;fill-opacity:1;fill-rule:evenodd;stroke:none"
         id="path140" /><path
         d="m 1858.42,620.332 -0.38,3.965 v 0.191 h 5.48 l 0.57,-4.156 h -5.67 v 0"
         style="fill:#f9ab1e;fill-opacity:1;fill-rule:evenodd;stroke:none"
         id="path142" /><path
         d="m 1810.82,620.332 v -0.566 l 0.57,-5.477 1.51,-5.101 2.65,-4.532 3.21,-3.965 3.96,-3.214 4.53,-2.262 4.92,-1.512 5.28,-0.566 5.29,0.566 4.91,1.512 4.54,2.262 3.96,3.214 3.21,3.965 2.65,4.532 1.51,5.101 0.57,5.477 v 0.566 h -5.67 v -0.566 l -0.38,-4.536 -1.13,-4.152 -1.89,-3.59 -2.46,-3.211 -3.02,-2.644 -3.59,-2.078 -4.15,-1.317 -4.35,-0.379 -4.34,0.379 -4.15,1.317 -3.59,2.078 -3.03,2.644 -2.45,3.211 -1.89,3.59 -1.13,4.152 -0.38,4.536 v 0.566 h -5.67 v 0"
         style="fill:#f9ab1e;fill-opacity:1;fill-rule:evenodd;stroke:none"
         id="path144" /><path
         d="m 1828.01,620.332 v -10.953 h 4.72 v 9.441 h 4.72 l 5.67,-9.441 h 3.78 l -5.67,9.441 h 1.32 l 1.33,0.379 1.13,0.379 0.94,0.754 v 0 h -17.94 v 0"
         style="fill:#f9ab1e;fill-opacity:1;fill-rule:evenodd;stroke:none"
         id="path146" /></g></g></svg>
