<?xml version="1.0" encoding="UTF-8" standalone="no"?>
<svg
   xmlns:dc="http://purl.org/dc/elements/1.1/"
   xmlns:cc="http://creativecommons.org/ns#"
   xmlns:rdf="http://www.w3.org/1999/02/22-rdf-syntax-ns#"
   xmlns:svg="http://www.w3.org/2000/svg"
   xmlns="http://www.w3.org/2000/svg"
   xmlns:sodipodi="http://sodipodi.sourceforge.net/DTD/sodipodi-0.dtd"
   xmlns:inkscape="http://www.inkscape.org/namespaces/inkscape"
   version="1.1"
   id="svg2"
   xml:space="preserve"
   width="257.01334"
   height="257.01334"
   viewBox="0 0 257.01334 257.01334"
   sodipodi:docname="Visa.eps"><metadata
     id="metadata8"><rdf:RDF><cc:Work
         rdf:about=""><dc:format>image/svg+xml</dc:format><dc:type
           rdf:resource="http://purl.org/dc/dcmitype/StillImage" /></cc:Work></rdf:RDF></metadata><defs
     id="defs6" /><sodipodi:namedview
     pagecolor="#ffffff"
     bordercolor="#666666"
     borderopacity="1"
     objecttolerance="10"
     gridtolerance="10"
     guidetolerance="10"
     inkscape:pageopacity="0"
     inkscape:pageshadow="2"
     inkscape:window-width="640"
     inkscape:window-height="480"
     id="namedview4" /><g
     id="g10"
     inkscape:groupmode="layer"
     inkscape:label="ink_ext_XXXXXX"
     transform="matrix(1.3333333,0,0,-1.3333333,0,257.01333)"><g
       id="g12"
       transform="scale(0.1)"><path
         d="M 0,1927.56 H 1927.56 V 0 H 0 v 1927.56 0"
         style="fill:#ffffff;fill-opacity:1;fill-rule:evenodd;stroke:none"
         id="path14" /><path
         d="m 704.18,702.102 88.965,522.028 H 935.434 L 846.41,702.102 H 704.18"
         style="fill:#1b54a2;fill-opacity:1;fill-rule:nonzero;stroke:none"
         id="path16" /><path
         d="m 1362.48,1211.28 c -28.19,10.58 -72.36,21.92 -127.53,21.92 -140.59,0 -239.637,-70.8 -240.477,-172.27 -0.789,-75.012 70.707,-116.856 124.677,-141.828 55.38,-25.586 74.01,-41.903 73.74,-64.754 -0.35,-34.993 -44.23,-50.977 -85.12,-50.977 -56.96,0 -87.21,7.91 -133.942,27.402 l -18.336,8.301 -19.969,-116.867 c 33.239,-14.57 94.687,-27.195 158.497,-27.852 149.57,0 246.68,69.993 247.78,178.352 0.54,59.383 -37.37,104.578 -119.46,141.833 -49.74,24.15 -80.2,40.26 -79.88,64.72 0,21.7 25.78,44.9 81.49,44.9 46.53,0.72 80.23,-9.42 106.49,-20 l 12.76,-6.02 19.28,113.14"
         style="fill:#1b54a2;fill-opacity:1;fill-rule:nonzero;stroke:none"
         id="path18" /><path
         d="M 1727.36,1223.63 H 1617.4 c -34.06,0 -59.55,-9.29 -74.51,-43.29 L 1331.57,701.934 h 149.42 c 0,0 24.43,64.328 29.96,78.449 16.33,0 161.47,-0.227 182.23,-0.227 4.25,-18.269 17.31,-78.222 17.31,-78.222 h 132.03 L 1727.36,1223.63 M 1551.89,887.16 c 11.77,30.078 56.7,145.93 56.7,145.93 -0.84,-1.39 11.68,30.22 18.86,49.82 l 9.62,-45.01 c 0,0 27.25,-124.607 32.94,-150.74 h -118.12"
         style="fill:#1b54a2;fill-opacity:1;fill-rule:nonzero;stroke:none"
         id="path20" /><path
         d="M 584.84,1223.75 445.531,867.766 430.688,940.109 C 404.758,1023.51 323.957,1113.86 233.625,1159.09 L 361,702.551 511.547,702.727 735.563,1223.75 H 584.84"
         style="fill:#1b54a2;fill-opacity:1;fill-rule:nonzero;stroke:none"
         id="path22" /><path
         d="M 316.301,1224.07 H 86.8555 l -1.8164,-10.86 C 263.547,1170 381.66,1065.58 430.688,940.109 L 380.797,1180 c -8.613,33.06 -33.594,42.92 -64.496,44.07"
         style="fill:#f89c0e;fill-opacity:1;fill-rule:nonzero;stroke:none"
         id="path24" /></g></g></svg>
